<svg width="409" height="124" viewBox="0 0 409 124" fill="none" xmlns="http://www.w3.org/2000/svg">
<path d="M399.645 121.875H408.064V123.404H397.911V113.207H407.919V114.737H399.645V117.461H406.608V118.99H399.645V121.875Z" fill="#1C214F"/>
<path d="M380.596 122.166C382.257 122.166 383.568 121.627 384.34 120.36L385.957 121.161C384.995 122.647 383.131 123.71 380.552 123.71C376.736 123.71 374.332 121.656 374.332 118.306C374.332 114.955 376.736 112.901 380.625 112.901C383.131 112.901 384.995 113.979 385.942 115.436L384.31 116.252C383.553 114.999 382.257 114.445 380.596 114.445C377.901 114.445 376.109 115.757 376.109 118.306C376.109 120.855 377.901 122.166 380.596 122.166Z" fill="#1C214F"/>
<path d="M362.065 123.404H360.317V113.207H362.065V123.404Z" fill="#1C214F"/>
<path d="M341.696 123.71C337.778 123.71 335.359 121.671 335.359 118.306C335.359 114.941 337.778 112.901 341.696 112.901C345.615 112.901 348.033 114.941 348.033 118.306C348.033 121.671 345.615 123.71 341.696 123.71ZM341.696 122.166C344.464 122.166 346.241 120.782 346.241 118.306C346.241 115.829 344.464 114.445 341.696 114.445C338.928 114.445 337.137 115.829 337.137 118.306C337.137 120.782 338.914 122.166 341.696 122.166Z" fill="#1C214F"/>
<path d="M312.491 113.207H314.429L318.726 121.612L323.023 113.207H324.932L319.644 123.404H317.779L312.491 113.207Z" fill="#1C214F"/>
<path d="M277.231 113.207H279.256L283.146 118.379L287.006 113.207H289.016L284.005 119.879V123.404H282.257V119.879L277.231 113.207Z" fill="#1C214F"/>
<path d="M267.013 123.404H264.857L261.696 119.704H257.398V123.404H255.65V113.207H262.584C264.959 113.207 266.707 114.344 266.707 116.456C266.707 118.218 265.483 119.296 263.706 119.617L267.013 123.404ZM257.384 118.204H262.468C263.925 118.204 264.915 117.738 264.915 116.47C264.915 115.203 263.925 114.737 262.468 114.737H257.384V118.204Z" fill="#1C214F"/>
<path d="M235.045 121.875H243.465V123.404H233.312V113.207H243.319V114.737H235.045V117.461H242.008V118.99H235.045V121.875Z" fill="#1C214F"/>
<path d="M209.29 113.207H211.227L215.525 121.612L219.822 113.207H221.73L216.442 123.404H214.578L209.29 113.207Z" fill="#1C214F"/>
<path d="M190.098 121.875H198.518V123.404H188.364V113.207H198.372V114.737H190.098V117.461H197.061V118.99H190.098V121.875Z" fill="#1C214F"/>
<path d="M159.4 113.207H161.104V123.404H159.56L151.592 115.363V123.404H149.902V113.207H151.767L159.4 120.942V113.207Z" fill="#1C214F"/>
<path d="M136.923 123.404H135.175V113.207H136.923V123.404Z" fill="#1C214F"/>
<path d="M108.844 123.404H106.688L103.527 119.704H99.2295V123.404H97.4814V113.207H104.415C106.79 113.207 108.538 114.344 108.538 116.456C108.538 118.218 107.314 119.296 105.537 119.617L108.844 123.404ZM99.2149 118.204H104.299C105.756 118.204 106.746 117.738 106.746 116.47C106.746 115.203 105.756 114.737 104.299 114.737H99.2149V118.204Z" fill="#1C214F"/>
<path d="M76.8761 121.875H85.2958V123.404H75.1426V113.207H85.1502V114.737H76.8761V117.461H83.8391V118.99H76.8761V121.875Z" fill="#1C214F"/>
<path d="M61.5407 113.207H63.3616L59.6324 123.404H57.8261L54.8253 115.174L51.8099 123.404H50.0182L46.2744 113.207H48.139L50.9505 121.365L53.9804 113.207H55.6993L58.7147 121.365L61.5407 113.207Z" fill="#1C214F"/>
<path d="M29.1746 123.71C25.256 123.71 22.8379 121.671 22.8379 118.306C22.8379 114.941 25.256 112.901 29.1746 112.901C33.0931 112.901 35.5113 114.941 35.5113 118.306C35.5113 121.671 33.0931 123.71 29.1746 123.71ZM29.1746 122.166C31.9423 122.166 33.7195 120.782 33.7195 118.306C33.7195 115.829 31.9423 114.445 29.1746 114.445C26.4068 114.445 24.6151 115.829 24.6151 118.306C24.6151 120.782 26.3923 122.166 29.1746 122.166Z" fill="#1C214F"/>
<path d="M7.43419 113.207C9.91059 113.207 11.5567 114.416 11.5567 116.543C11.5567 118.685 9.91059 119.879 7.43419 119.879H2.292V123.404H0.543945V113.207H7.43419ZM7.28851 118.379C8.78893 118.379 9.76492 117.854 9.76492 116.558C9.76492 115.247 8.78893 114.737 7.28851 114.737H2.292V118.379H7.28851Z" fill="#1C214F"/>
<g clip-path="url(#clip0_147_408)">
<path d="M124.558 67.2355L100.676 19.1319C100.416 18.6012 100.218 18.1698 100.218 17.8254C100.218 17.318 100.577 16.8063 101.379 16.8063H107.031C108.196 16.8063 108.534 16.9311 109.18 18.1527L123.236 46.7229C124.217 48.7222 125.744 52.5155 126.328 53.9858C126.913 52.5155 128.44 48.7222 129.42 46.7229L143.471 18.1663C144.123 16.9311 144.461 16.8063 145.626 16.8063H151.279C152.081 16.8063 152.439 17.318 152.439 17.8254C152.439 18.1699 152.232 18.6202 151.981 19.1302L128.098 67.2355H124.558Z" fill="#1C214F"/>
<path d="M212.807 68.0583C197.101 68.0583 186.131 57.3512 186.131 42.0208C186.131 26.6905 197.101 15.9834 212.807 15.9834C228.514 15.9834 239.484 26.6905 239.484 42.0208C239.484 57.3512 228.514 68.0583 212.807 68.0583ZM212.807 23.2887C201.891 23.2887 194.267 30.991 194.267 42.0208C194.267 53.0507 201.891 60.7521 212.807 60.7521C223.724 60.7521 231.347 53.0498 231.347 42.0208C231.347 30.8164 223.897 23.2887 212.807 23.2887Z" fill="#1C214F"/>
<path d="M315.436 67.2355C314.289 67.2355 313.987 67.1406 313.101 66.0591L297.322 46.9191L297.304 46.9489C296.423 48.4238 295.328 50.2593 294.581 51.0976L282.567 66.0555C281.68 67.1406 281.378 67.2355 280.231 67.2355H273.77C273.201 67.2355 272.771 66.797 272.771 66.2155C272.771 65.8682 272.944 65.493 273.246 65.1865L292.482 41.1212L274.103 18.8209C273.833 18.5479 273.66 18.1726 273.66 17.8254C273.66 17.2448 274.09 16.8063 274.659 16.8063H281.361C282.507 16.8063 282.81 16.9012 283.695 17.9827L298.446 35.9128C299.279 34.6785 301.224 31.8202 302.195 30.5832L312.537 17.9818C313.421 16.9012 313.723 16.8063 314.87 16.8063H321.249C321.819 16.8063 322.248 17.2448 322.248 17.8254C322.248 18.1735 322.075 18.5496 321.774 18.8553L303.187 41.6891L322.611 65.2191C322.883 65.493 323.056 65.8683 323.056 66.2156C323.056 66.797 322.626 67.2356 322.057 67.2356L315.436 67.2355Z" fill="#1C214F"/>
<path d="M401.753 67.2356C400.587 67.2356 400.249 67.1108 399.604 65.8882L385.548 37.3189C384.566 35.3196 383.04 31.5273 382.455 30.057C381.87 31.5273 380.344 35.3196 379.362 37.3189L365.313 65.8746C364.661 67.1108 364.323 67.2355 363.157 67.2355H357.505C356.703 67.2355 356.344 66.7228 356.344 66.2155C356.344 65.8718 356.543 65.4396 356.802 64.9106L380.685 16.8063H384.225L408.107 64.9089C408.368 65.4396 408.566 65.8718 408.566 66.2155C408.566 66.7228 408.207 67.2355 407.405 67.2355L401.753 67.2356Z" fill="#1C214F"/>
<path d="M30.3259 76.6802C29.6246 76.6802 28.8994 76.6802 28.202 76.6295C24.9572 76.4343 21.7119 75.8094 18.562 74.7731C17.3546 74.35 15.7954 73.7694 14.355 73.0072L14.0773 72.8607V9.69079C10.8657 11.5987 7.94731 14.0926 5.58921 16.9509V67.1902L4.72907 66.398C3.377 65.1539 2.00722 63.6265 0.541134 61.7295L0.430664 61.5866V15.0936L0.541134 14.9508C2.00985 13.0509 3.37964 11.5237 4.72907 10.2822C7.64034 7.52067 10.8883 5.29176 14.3775 3.66137C15.8005 2.90905 17.3576 2.32941 18.5526 1.90987L19.2353 1.67023V69.4084C21.9553 70.4455 24.741 71.0631 27.7233 71.2883V0.086975L28.2016 0.0516968C28.8989 0.00012207 29.6246 0.00012207 30.3259 0.00012207C31.0037 0.00012207 31.7046 0.00012207 32.4028 0.0516968C35.6445 0.246144 38.8902 0.87004 42.0423 1.90626C43.6924 2.46691 45.0276 3.02747 46.2484 3.67313L46.5266 3.81961V66.9904C49.7382 65.0825 52.6561 62.5876 55.0151 59.7293V9.49005L55.8752 10.2822C57.3652 11.6548 58.7359 13.183 60.0667 14.9562L60.1727 15.0972V61.5821L60.0667 61.7241C58.7382 63.4946 57.3675 65.0237 55.8752 66.3981C52.9671 69.1579 49.7187 71.3877 46.2263 73.019C45.0322 73.651 43.697 74.2117 42.0473 74.7723L41.3695 75.0019V7.27104C38.7261 6.2502 35.8748 5.61899 32.881 5.39204V76.5951L32.4023 76.6295C31.7041 76.6801 31.0033 76.6802 30.3259 76.6802Z" fill="#1C214F"/>
</g>
<defs>
<clipPath id="clip0_147_408">
<rect width="408.136" height="76.6801" fill="white" transform="translate(0.431641 6.10352e-05)"/>
</clipPath>
</defs>
</svg>
