<svg width="61" height="77" viewBox="0 0 61 77" fill="none" xmlns="http://www.w3.org/2000/svg">
<path d="M30.3259 76.6802C29.6246 76.6802 28.8994 76.6802 28.202 76.6295C24.9572 76.4343 21.7119 75.8094 18.562 74.7731C17.3546 74.35 15.7954 73.7694 14.355 73.0072L14.0773 72.8607V9.69079C10.8657 11.5987 7.94731 14.0926 5.58921 16.9509V67.1902L4.72907 66.398C3.377 65.1539 2.00722 63.6265 0.541134 61.7295L0.430664 61.5866V15.0936L0.541134 14.9508C2.00985 13.0509 3.37964 11.5237 4.72907 10.2822C7.64034 7.52067 10.8883 5.29176 14.3775 3.66137C15.8005 2.90905 17.3576 2.32941 18.5526 1.90987L19.2353 1.67023V69.4084C21.9553 70.4455 24.741 71.0631 27.7233 71.2883V0.086975L28.2016 0.0516968C28.8989 0.00012207 29.6246 0.00012207 30.3259 0.00012207C31.0037 0.00012207 31.7046 0.00012207 32.4028 0.0516968C35.6445 0.246144 38.8902 0.87004 42.0423 1.90626C43.6924 2.46691 45.0276 3.02747 46.2484 3.67313L46.5266 3.81961V66.9904C49.7382 65.0825 52.6561 62.5876 55.0151 59.7293V9.49005L55.8752 10.2822C57.3652 11.6548 58.7359 13.183 60.0667 14.9562L60.1727 15.0972V61.5821L60.0667 61.7241C58.7382 63.4946 57.3675 65.0237 55.8752 66.3981C52.9671 69.1579 49.7187 71.3877 46.2263 73.019C45.0322 73.651 43.697 74.2117 42.0473 74.7723L41.3695 75.0019V7.27104C38.7261 6.2502 35.8748 5.61899 32.881 5.39204V76.5951L32.4023 76.6295C31.7041 76.6801 31.0033 76.6802 30.3259 76.6802Z" fill="#FF5465"/>
</svg>
